<svg xmlns="http://www.w3.org/2000/svg" xmlns:xlink="http://www.w3.org/1999/xlink" width="1440" zoomAndPan="magnify" viewBox="0 0 1080 767.999994" height="1024" preserveAspectRatio="xMidYMid meet" version="1.0"><defs><clipPath id="5f0ae0a5b1"><path d="M 433.441406 207.359375 L 924 207.359375 L 924 768 L 433.441406 768 Z M 433.441406 207.359375 " clip-rule="nonzero"/></clipPath><clipPath id="58ac643c45"><path d="M 924 384 C 924 596.078125 752.078125 768 540 768 C 327.921875 768 156 596.078125 156 384 C 156 171.921875 327.921875 0 540 0 C 752.078125 0 924 171.921875 924 384 Z M 924 384 " clip-rule="nonzero"/></clipPath></defs><path fill="#7ac943" d="M 924 384 C 924 596.078125 752.078125 768 540 768 C 327.921875 768 156 596.078125 156 384 C 156 171.921875 327.921875 0 540 0 C 752.078125 0 924 171.921875 924 384 " fill-opacity="1" fill-rule="nonzero"/><g clip-path="url(#5f0ae0a5b1)"><g clip-path="url(#58ac643c45)"><path fill="#69ad3a" d="M 1094.886719 517.902344 L 784.894531 207.902344 L 433.65625 561.058594 L 714.871094 842.269531 L 1094.886719 517.902344 " fill-opacity="1" fill-rule="nonzero"/></g></g><path fill="#ffffff" d="M 784.894531 207.902344 C 774.636719 197.648438 761.003906 192 746.496094 192 C 731.992188 192 718.355469 197.648438 708.097656 207.902344 L 471.140625 444.859375 L 371.902344 345.617188 C 361.644531 335.363281 348.007812 329.714844 333.503906 329.714844 C 318.996094 329.714844 305.363281 335.363281 295.105469 345.617188 C 273.933594 366.792969 273.933594 401.242188 295.105469 422.414062 L 432.238281 559.546875 C 432.390625 559.707031 432.546875 559.871094 432.738281 560.0625 C 435.339844 562.664062 438.21875 565.011719 441.265625 567.023438 C 450.144531 572.894531 460.496094 576 471.183594 576 C 485.691406 576 499.328125 570.347656 509.574219 560.105469 C 510.074219 559.605469 773.671875 295.921875 784.894531 284.699219 C 795.148438 274.445312 800.796875 260.808594 800.796875 246.304688 C 800.796875 231.796875 795.148438 218.160156 784.894531 207.902344 " fill-opacity="1" fill-rule="nonzero"/></svg>